<mxfile host="app.diagrams.net" agent="Mozilla/5.0 (Windows NT 10.0; Win64; x64) AppleWebKit/537.36 (KHTML, like Gecko) Chrome/131.0.0.0 Safari/537.36" version="25.0.3">
  <diagram name="페이지-1" id="uKxP302sThGqIetjl7-x">
    <mxGraphModel grid="1" page="1" gridSize="10" guides="1" tooltips="1" connect="1" arrows="1" fold="1" pageScale="1" pageWidth="827" pageHeight="1169" math="0" shadow="0">
      <root>
        <mxCell id="0" />
        <mxCell id="1" parent="0" />
        <mxCell id="e5RPsQH07TA7iugsmJp_-3" value="" style="edgeStyle=orthogonalEdgeStyle;rounded=0;orthogonalLoop=1;jettySize=auto;html=1;" edge="1" parent="1" source="e5RPsQH07TA7iugsmJp_-1" target="e5RPsQH07TA7iugsmJp_-2">
          <mxGeometry relative="1" as="geometry" />
        </mxCell>
        <mxCell id="e5RPsQH07TA7iugsmJp_-1" value="P1, P2의 Rank계산" style="rounded=0;whiteSpace=wrap;html=1;" vertex="1" parent="1">
          <mxGeometry x="350" y="400" width="120" height="60" as="geometry" />
        </mxCell>
        <mxCell id="e5RPsQH07TA7iugsmJp_-5" value="" style="edgeStyle=orthogonalEdgeStyle;rounded=0;orthogonalLoop=1;jettySize=auto;html=1;" edge="1" parent="1" source="e5RPsQH07TA7iugsmJp_-2" target="e5RPsQH07TA7iugsmJp_-4">
          <mxGeometry relative="1" as="geometry" />
        </mxCell>
        <mxCell id="e5RPsQH07TA7iugsmJp_-2" value="P1 = [0, &quot;AKQJT&quot;]&lt;div&gt;P2 = [1, &quot;JT987&quot;]&lt;/div&gt;" style="shape=parallelogram;perimeter=parallelogramPerimeter;whiteSpace=wrap;html=1;fixedSize=1;rounded=0;" vertex="1" parent="1">
          <mxGeometry x="330" y="540" width="160" height="60" as="geometry" />
        </mxCell>
        <mxCell id="e5RPsQH07TA7iugsmJp_-10" value="" style="edgeStyle=orthogonalEdgeStyle;rounded=0;orthogonalLoop=1;jettySize=auto;html=1;" edge="1" parent="1" source="e5RPsQH07TA7iugsmJp_-4" target="e5RPsQH07TA7iugsmJp_-9">
          <mxGeometry relative="1" as="geometry" />
        </mxCell>
        <mxCell id="e5RPsQH07TA7iugsmJp_-4" value="Max(P1, P2)" style="whiteSpace=wrap;html=1;rounded=0;" vertex="1" parent="1">
          <mxGeometry x="350" y="680" width="120" height="60" as="geometry" />
        </mxCell>
        <mxCell id="e5RPsQH07TA7iugsmJp_-9" value="Winner = [P1]" style="shape=document;whiteSpace=wrap;html=1;boundedLbl=1;rounded=0;" vertex="1" parent="1">
          <mxGeometry x="350" y="810" width="120" height="80" as="geometry" />
        </mxCell>
      </root>
    </mxGraphModel>
  </diagram>
</mxfile>
